# xmcd
# 
# Track frame offsets:
#     150
#     16950
#     37173
#     52597
#     73453
#     90143
#     106747
#     123629
#     138872
#     159391
#     177686
#     194219
# 
# Disc length: 2859
# 
# Revision: 0
# Processed by: cddbd v1.5.2PL0 Copyright (c) Steve Scherf et al.
# Submitted via: fre:ac v1.0.31
# 
DISCID=a50b290c
DTITLE=Various Artist - CR麻雀物語2～めざせ！雀ドル決定戦！～オリジナルサウンドトラック[Disc1]
DYEAR=2015
DGENRE=Soundtrack
TTITLE0=じゃんぴんガールズ/CV:福圓美里・金元寿子・茅野愛衣 - Jump!!
TTITLE1=れいな/CV:福圓美里 - Like a Phoenix
TTITLE2=みいな/CV:金元寿子 - 恋のビギナーズラック
TTITLE3=しいな/CV:茅野愛衣 - 明日への奏（かなで）
TTITLE4=ルカ/CV:大久保瑠美 - 小夜啼鳥（サヨナキドリ）
TTITLE5=ユアン/CV:佐藤利奈 - Twinkle Love
TTITLE6=じゃんぴんガールズ/CV:福圓美里・金元寿子・茅野愛衣 - 純情乙女ミラクル
TTITLE7=じゃんぴんガールズ/CV:福圓美里・金元寿子・茅野愛衣 - FIGHTING☆STAR
TTITLE8=エマ/CV:米澤円 - ACCELERATION
TTITLE9=レイディ/CV:茅原実里 - Super Lady
TTITLE10=じゃんぴんガールズ/CV:福圓美里・金元寿子・茅野愛衣 - 高鳴りの先へ
TTITLE11=じゃんぴんガールズ/CV:福圓美里・金元寿子・茅野愛衣 - True Place～届いた夢の向こう側～
EXTD=
EXTT0=
EXTT1=
EXTT2=
EXTT3=
EXTT4=
EXTT5=
EXTT6=
EXTT7=
EXTT8=
EXTT9=
EXTT10=
EXTT11=
PLAYORDER=
